<svg id="Logo_landscape" data-name="Logo landscape" xmlns="http://www.w3.org/2000/svg" viewBox="0 0 1310 551"><defs><style>.cls-1,.cls-2{fill:#fff;}.cls-1{stroke:#fff;stroke-miterlimit:10;stroke-width:0.25px;}</style></defs><path class="cls-1" d="M226.2,89.39V76c0-9.58-6.85-17.11-16.43-17.11A17,17,0,0,0,192.65,76c0,33.55,110.23,35.61,110.23,103,0,42.11-41.76,76.34-93.8,76.34-50.32,0-94.48-41.08-94.48-89H192v13.35c0,9.58,6.84,17.11,16.43,17.11a17,17,0,0,0,17.11-17.11c0-33.55-110.22-35.61-110.22-103,0-42.11,41.76-76.34,93.79-76.34,50.32,0,94.48,41.08,94.48,89ZM440.83,252l-43.48-96.54V252H320.67V4.5h76.68V96.24L439.8,4.5H522L456.57,124l69.49,128Zm92.07,0V4.5H697.21V58.93H609.58v44.84h64v40.05h-64v53.75h87.63V252ZM845.43,58.93V252H768.75V58.93H714.33V4.5H899.86V58.93ZM997.07,255.76c-52,0-93.79-42.79-93.79-94.82V94.87c0-52,41.76-94.48,93.79-94.48s93.8,42.45,93.8,94.48v5.82h-76.68V76A17.12,17.12,0,0,0,980,76V180.11a17.12,17.12,0,0,0,34.23,0V155.46h76.68v5.82C1090.87,213.31,1049.1,255.76,997.07,255.76ZM1232.92,252V143.82h-44.84V252H1111.4V4.5h76.68v99.27h44.84V4.5h76.68V252Z"/><path d="M1308.87,5.11V252.5L1009.31,551H0V164.47L135.08,29.91h0C152.23,12.31,178.73,1,208.63,1c30.91,0,59.48,15.5,76.93,38.56h.07L320.19,5.11h76.66l0,42.23L439.29,5.11h82.14l-13.13,24,24.07-24H696.64V22.16l17.11-17H899.24V59.5L929.9,28.85h0A93.4,93.4,0,0,1,1073.76,42l37-36.9h76.66V50l44.83-44.85Z"/><path class="cls-2" d="M1309,5.23V252.88h-76.91V144.75h-44.58V252.88H1110.6V5.23h76.91v99.24h44.58V5.23ZM1090.2,162.08v-5.82h-76.66V180.9a17.12,17.12,0,0,1-34.23,0v-104a17.12,17.12,0,0,1,34.23,0v24.64h76.66V95.69c0-52-41.75-94.44-93.77-94.44s-93.78,42.43-93.78,94.44v66.05c0,52,41.76,94.78,93.78,94.78S1090.2,214.09,1090.2,162.08Zm-27.29,66.81a94.33,94.33,0,0,0,27.41-66.81v-5.94h-76.91V180.9a17,17,0,0,1-34,0v-104a17,17,0,0,1,34,0v24.77h76.91v-6a94.33,94.33,0,0,0-27.41-66.81,93.52,93.52,0,0,0-133,0,94.33,94.33,0,0,0-27.41,66.81v66c0,52.34,42.12,94.92,93.9,94.92A92.9,92.9,0,0,0,1062.91,228.89Zm-.18-199.83a94.09,94.09,0,0,1,27.34,66.63v5.7h-76.41V76.87a17.24,17.24,0,0,0-34.47,0v104a17.24,17.24,0,0,0,34.47,0V156.39h76.41v5.69a94.13,94.13,0,0,1-27.34,66.64,92.65,92.65,0,0,1-66.3,27.68c-51.64,0-93.65-42.47-93.65-94.67v-66a94.09,94.09,0,0,1,27.34-66.63,93.25,93.25,0,0,1,132.61,0ZM713.63,5.23V59.89H768v193H845v-193h54.41V5.23ZM696.77,59.89V5.23H532.25V252.88H696.77V198.22H609.16V144.75h64V104.47h-64V59.89ZM456.2,124.78,521.54,5.42l.1-.19H439.21L397,96.5V5.23H320.07V252.88H397v-96l43.22,96,0,.07h85.5Zm-153-34.44v-.12a80.57,80.57,0,0,0-7.69-34.16,92.25,92.25,0,0,0-20.71-28.38A98.65,98.65,0,0,0,244.66,8.3a94.56,94.56,0,0,0-36-7.17c-25.15,0-48.76,8-66.47,22.4s-27.43,33.61-27.43,54c0,17.64,7.5,32.35,22.91,45,13.41,11,30.94,18.87,46.41,25.84,21.94,9.87,40.88,18.4,40.88,32.19a16.8,16.8,0,0,1-17,17c-9.3,0-16.31-7.3-16.31-17V167.09H114.05v.12a80.43,80.43,0,0,0,7.7,34.16,92.05,92.05,0,0,0,20.7,28.38,98.65,98.65,0,0,0,30.15,19.38,94.56,94.56,0,0,0,36,7.17c25.16,0,48.76-8,66.47-22.4s27.43-33.61,27.43-54c0-17.64-7.5-32.35-22.91-45-13.41-11-30.94-18.86-46.41-25.82-21.93-9.88-40.88-18.41-40.88-32.2a16.8,16.8,0,0,1,17-17c9.29,0,16.3,7.3,16.3,17V90.34Z"/></svg>